<?xml version="1.0" encoding="UTF-8"?>
<svg width="24px" height="24px" viewBox="0 0 24 24" version="1.1" xmlns="http://www.w3.org/2000/svg" xmlns:xlink="http://www.w3.org/1999/xlink">
    <!-- Generator: Sketch 56.2 (81672) - https://sketch.com -->
    <title>ic-facebook-24px</title>
    <desc>Created with Sketch.</desc>
    <g id="ic-facebook-24px" stroke="none" stroke-width="1" fill="none" fill-rule="evenodd">
        <g id="Path">
            <path d="M17.5857723,2.0043694 L14.9473725,2 C11.9832208,2 10.0676557,4.02849474 10.0676557,7.16812834 L10.0676557,9.55098155 L7.41486271,9.55098155 C7.18562989,9.55098155 7,9.74279829 7,9.97940139 L7,13.4318841 C7,13.6684873 7.18584156,13.8600855 7.41486271,13.8600855 L10.0676557,13.8600855 L10.0676557,22.5717986 C10.0676557,22.8084017 10.2532856,23 10.4825184,23 L13.9436587,23 C14.1728915,23 14.3585214,22.8081833 14.3585214,22.5717986 L14.3585214,13.8600855 L17.4602552,13.8600855 C17.689488,13.8600855 17.8751179,13.6684873 17.8751179,13.4318841 L17.8763878,9.97940139 C17.8763878,9.86579695 17.8325733,9.75699885 17.7548923,9.67660185 C17.6772114,9.59620486 17.5713791,9.55098155 17.4613135,9.55098155 L14.3585214,9.55098155 L14.3585214,7.53100715 C14.3585214,6.56012609 14.5826743,6.06725758 15.8080009,6.06725758 L17.585349,6.06660217 C17.8143701,6.06660217 18,5.87478543 18,5.6384008 L18,2.43257077 C18,2.19640461 17.8145818,2.00480634 17.5857723,2.0043694 Z" fill="#98CA3E"></path>
            <polygon points="0 0 24 0 24 24 0 24"></polygon>
        </g>
    </g>
</svg>