<?xml version="1.0" encoding="UTF-8"?>
<svg width="24px" height="24px" viewBox="0 0 24 24" version="1.1" xmlns="http://www.w3.org/2000/svg" xmlns:xlink="http://www.w3.org/1999/xlink">
    <g id="ic-linkedin-24px" stroke="none" stroke-width="1" fill="none" fill-rule="evenodd">
            <path d="M22,14.6488849 L22,22 L17.7133524,22 L17.7133524,15.1412183 C17.7133524,13.4182364 17.0933351,12.2423687 15.5417107,12.2423687 C14.3572423,12.2423687 13.6523644,13.0348173 13.3422627,13.8013781 C13.2291772,14.0754206 13.2000688,14.4568518 13.2000688,14.8404558 L13.2000688,22 L8.91197976,22 C8.91197976,22 8.96973149,10.383475 8.91197976,9.1799164 L13.1996503,9.1799164 L13.1996503,10.9971119 C13.190955,11.0107031 13.1796558,11.0253575 13.1714719,11.0385327 L13.1996503,11.0385327 L13.1996503,10.9971119 C13.7693093,10.1248266 14.7866604,8.87873782 17.0638082,8.87873782 C19.8850406,8.87873782 22,10.7110501 22,14.6488849 Z M4.42645606,3 C2.95950637,3 2,3.95660605 2,5.2145756 C2,6.44513165 2.93174648,7.43076919 4.36954131,7.43076919 L4.39818468,7.43076919 C5.89354524,7.43076919 6.82352476,6.44531657 6.82352476,5.2145756 C6.79534638,3.95660605 5.89354524,3 4.42645606,3 Z M2.25467489,22 L6.54113648,22 L6.54113648,9.1799164 L2.25467489,9.1799164 L2.25467489,22 Z" id="LinkedIn" fill="#98CA3E"></path>
    </g>
</svg>
