<?xml version="1.0" encoding="UTF-8"?>
<svg width="24px" height="24px" viewBox="0 0 24 24" version="1.1" xmlns="http://www.w3.org/2000/svg" xmlns:xlink="http://www.w3.org/1999/xlink">
    <!-- Generator: Sketch 56.2 (81672) - https://sketch.com -->
    <title>ic-twitter-active-24px</title>
    <desc>Created with Sketch.</desc>
    <g id="ic-twitter-active-24px" stroke="none" stroke-width="1" fill="none" fill-rule="evenodd">
        <g id="ic-twitter-24px">
            <g>
                <path d="M23,6.0113675 C22.2270821,6.35268819 21.3977523,6.58416798 20.5263881,6.68751144 C21.4161102,6.15653395 22.0971701,5.31432916 22.4199598,4.31386046 C21.58538,4.80557975 20.6641579,5.16263108 19.6825779,5.35618635 C18.8965521,4.5205132 17.7785062,4 16.5384061,4 C14.1592944,4 12.2302765,5.92245519 12.2302765,8.2921735 C12.2302765,8.62826205 12.2683305,8.95651947 12.3418306,9.27041413 C8.76201105,9.09122162 5.58767743,7.3819508 3.46313965,4.78465116 C3.09176159,5.41763843 2.88049163,6.15520026 2.88049163,6.94251879 C2.88049163,8.43210781 3.64160562,9.74643697 4.79640163,10.5153917 C4.09039557,10.4918641 3.42638959,10.2983089 2.84507981,9.97658307 L2.84507981,10.030204 C2.84507981,12.1095895 4.33055773,13.845021 6.30023742,14.2399969 C5.93935938,14.3367745 5.55881954,14.3903955 5.16513752,14.3903955 C4.8869557,14.3903955 4.61793565,14.3629352 4.35416561,14.3106138 C4.90267141,16.0172856 6.4931495,17.2583647 8.37755944,17.2923908 C6.90388546,18.4432581 5.04572556,19.1272331 3.02749187,19.1272331 C2.67975601,19.1272331 2.33723585,19.1063045 2,19.06838 C3.9067139,20.2885647 6.17035976,21 8.6032755,21 C16.5279747,21 20.8597465,14.4584134 20.8597465,8.78522647 L20.8453004,8.22942193 C21.6916841,7.62779335 22.4239059,6.8719019 23,6.0113675 Z" id="Path" fill="#221F44"></path>
                <polygon id="Path" points="0 0 24 0 24 24 0 24"></polygon>
            </g>
        </g>
    </g>
</svg>