<?xml version="1.0" encoding="UTF-8"?>
<svg xmlns="http://www.w3.org/2000/svg" width="40" height="51" viewBox="0 0 40 51">
  <g fill="none" fill-rule="nonzero">
    <g fill="#FFF">
      <path d="M0 11v40h40V11H0zm38 38H2V13h36v36z"></path>
      <path d="M25.126 33.208c-.39-.362-.895-.564-1.53-.593a1.834 1.834 0 0 0-1.387.448c-.39.347-.707.767-.953 1.287-.072.16-.144.333-.202.506 0 .015-.014.044-.014.058-.072.232-.13.39-.275.81-.144.42-.303.84-.476 1.244-.173.405-.347.767-.52 1.085-.173.318-.303.463-.419.463-.159 0-.26-.145-.289-.434a6.063 6.063 0 0 1 0-1.027c.044-.405.101-.824.174-1.273.086-.448.159-.824.23-1.157.073-.318.03-.52-.1-.622a.89.89 0 0 0-.535-.116c-.216.015-.447.03-.678.073-.246.043-.42.029-.52-.03.144-.332.202-.65.159-.925-.03-.275-.246-.42-.621-.42a.936.936 0 0 0-.578.203 1.24 1.24 0 0 0-.39.478c-.086.188-.13.39-.115.607a.857.857 0 0 0 .26.564l-.16.448c-.014.03-.028.058-.028.087-.448 1.186-.982 2.17-1.603 2.936.014-.55.043-1.157.058-1.822a30.37 30.37 0 0 1 .159-2.3c.014-.202-.015-.361-.102-.492a.788.788 0 0 0-.36-.289 1.339 1.339 0 0 0-.477-.101c-.173-.015-.332 0-.491.043a2.137 2.137 0 0 0-.78-.91 1.595 1.595 0 0 0-.938-.319c-.535 0-1.011.188-1.416.55-.404.361-.736.824-.996 1.388a6.26 6.26 0 0 0-.491 1.837 5.241 5.241 0 0 0 .072 1.851c.13.579.39 1.042.766 1.418.375.376.895.564 1.545.564.375 0 .678-.073.924-.217.245-.145.433-.318.577-.507l-.086.724c-.39.029-.852.144-1.386.303a5.78 5.78 0 0 0-1.473.71 2.88 2.88 0 0 0-.982 1.113c-.202.434-.174.94.086 1.518.16.333.477.608.953.81.477.203.982.26 1.531.174.549-.072 1.083-.333 1.603-.752.52-.42.939-1.07 1.213-1.967.087-.304.159-.593.231-.882.058-.29.116-.579.144-.854.52-.477 1.011-1.085 1.488-1.808.476-.723.866-1.605 1.198-2.66a.515.515 0 0 0 .03-.146c.014-.014.014-.029.028-.043h.26c.087 0 .173-.014.274-.029-.144.434-.26.926-.332 1.504a6.151 6.151 0 0 0-.043 1.62c.058.506.173.955.375 1.316.203.362.506.564.939.579.375.014.708-.072 1.01-.275.304-.202.578-.477.838-.81a6.83 6.83 0 0 0 .477-.766c.159.477.419.882.78 1.214.39.362.924.536 1.574.55.592 0 1.097-.173 1.516-.506a3.48 3.48 0 0 0 .982-1.287 4.53 4.53 0 0 0 .39-1.664 4.412 4.412 0 0 0-.231-1.692 3.168 3.168 0 0 0-.867-1.388zm-12.852 7.477c-.173.666-.404 1.157-.664 1.49-.274.333-.52.535-.75.607a.58.58 0 0 1-.578-.1c-.16-.146-.203-.362-.145-.637.087-.506.347-.883.794-1.172.434-.275.91-.463 1.43-.55l-.087.362zm.462-4.99a5.72 5.72 0 0 1-.317 1.345c-.058.102-.101.232-.16.376a5.177 5.177 0 0 1-.172.391.797.797 0 0 1-.246.29.517.517 0 0 1-.36.115c-.29 0-.506-.145-.65-.42a2.873 2.873 0 0 1-.29-1.026 5.894 5.894 0 0 1 .015-1.331c.058-.477.144-.911.289-1.316.13-.405.289-.738.476-.998.188-.26.39-.376.636-.333.216.044.39.203.534.492.144.29.231.65.274 1.056.03.434.03.882-.029 1.36zm11.683 1.562c-.058.348-.145.637-.275.854-.13.217-.288.318-.476.303-.231-.014-.419-.159-.563-.405-.145-.245-.246-.55-.318-.896a5.606 5.606 0 0 1-.101-1.143c0-.405.029-.78.101-1.128.058-.333.159-.622.289-.853.13-.232.274-.347.462-.347.202 0 .36.13.505.376.145.246.26.55.332.91.087.362.13.753.13 1.172-.014.42-.028.81-.086 1.157zM33.574 32.803c-.13.086-.188.217-.188.39 0 .188-.029.52-.072 1.013-.043.491-.115.998-.188 1.533a9.932 9.932 0 0 1-.288 1.403c-.116.405-.246.607-.405.607-.159 0-.289-.144-.419-.448a4.725 4.725 0 0 1-.303-1.114 9.218 9.218 0 0 1-.115-1.46 4.959 4.959 0 0 1 .187-1.49c.03-.145-.043-.26-.23-.304a1.645 1.645 0 0 0-1.372.231c-.217.145-.347.362-.39.651-.13 1.056-.116 2.054.072 2.965-.13.463-.26.868-.405 1.2-.13.333-.26.492-.404.492-.144 0-.274-.217-.375-.636a8.42 8.42 0 0 1-.202-1.533 15.978 15.978 0 0 1-.015-1.866 7.92 7.92 0 0 1 .231-1.634c.058-.145-.014-.26-.216-.318-.188-.073-.405-.087-.665-.044a1.591 1.591 0 0 0-.722.275c-.23.145-.36.362-.404.65-.087.652-.116 1.36-.101 2.127.014.766.086 1.475.216 2.126.13.65.333 1.186.621 1.62.275.434.65.636 1.112.622.376-.03.722-.203 1.026-.492.303-.304.563-.68.794-1.143.188.319.404.565.65.738.26.174.563.246.91.217a1.33 1.33 0 0 0 .938-.434c.26-.275.491-.607.679-1.012.187-.405.332-.84.447-1.316.116-.478.203-.94.275-1.374.072-.434.115-.81.144-1.143.029-.333.043-.55.058-.65.014-.174-.029-.29-.145-.391a.623.623 0 0 0-.375-.13c-.116-.058-.245-.015-.361.072zM6.513 33.772c.202.087.418.13.65.115.23-.014.447-.086.65-.188.201-.115.303-.274.288-.462-.014-.362-.014-.84-.029-1.432-.014-.593 0-1.244.015-1.938.057.058.115.1.158.13.058.029.116.072.16.101.331.203.65.304.967.29.476.028.895-.13 1.256-.449.361-.318.65-.738.867-1.244a5.522 5.522 0 0 0 .404-1.649 4.514 4.514 0 0 0-.13-1.663 3.282 3.282 0 0 0-.693-1.316c-.318-.362-.766-.564-1.314-.579a1.615 1.615 0 0 0-.896.217c-.274.16-.49.319-.664.507.029-.42.043-.781.058-1.1a8.1 8.1 0 0 1 .072-.78c.029-.232-.058-.377-.274-.435-.202-.057-.448-.043-.708.044-.26.087-.505.246-.736.463-.231.217-.332.506-.318.838 0 .16.014.478.014.926 0 .448.015.998.015 1.62.014.622.014 1.302.014 2.04v2.14c0 .694-.014 1.345-.043 1.924a24.52 24.52 0 0 1-.072 1.417c0 .217.086.376.289.463zm1.704-7.13c.043-.435.144-.84.303-1.216.1-.217.23-.405.39-.578.159-.16.332-.246.534-.232.202.015.347.13.448.377.1.231.173.535.216.896.044.362.03.738 0 1.143a5.96 5.96 0 0 1-.202 1.1 2.723 2.723 0 0 1-.346.823c-.145.217-.304.319-.491.275-.217-.029-.405-.173-.55-.434a2.56 2.56 0 0 1-.288-.954 3.704 3.704 0 0 1-.014-1.2zM13.054 23.214c.275.115.534.144.809.1.144-.028.274-.1.404-.173.13-.087.246-.188.332-.303.101-.116.16-.26.217-.405.043-.145.058-.319.029-.492-.044-.333-.188-.579-.448-.709-.26-.145-.549-.173-.866-.087-.318.087-.563.26-.751.507-.188.26-.246.55-.202.896.057.318.202.55.476.666zM12.968 29.953c.216.376.563.637 1.054.767.317.087.62.043.88-.13.26-.174.506-.405.723-.709.216-.304.404-.65.563-1.041a15.427 15.427 0 0 0 .678-2.112c.073-.29.13-.492.16-.607.014-.102.13-.507.201-.84.217.738.52 1.476.91 2.2a36.147 36.147 0 0 1-1.66 2.617c-.16.217-.217.42-.203.593.03.174.087.304.203.39.115.087.245.116.418.087.174-.014.332-.13.491-.332.246-.318.491-.651.737-1.013.245-.361.505-.752.75-1.142.39.55.81.983 1.271 1.33.462.347.925.507 1.401.492.289-.014.534-.116.765-.318.232-.203.434-.463.621-.767a5.98 5.98 0 0 0 .318-.607v.029c.145.68.404 1.23.765 1.663.376.434.881.636 1.517.622a3.032 3.032 0 0 0 1.444-.39c.433-.246.808-.55 1.14-.912.333-.361.607-.752.838-1.171.101-.188.202-.376.289-.564.029.231.043.463.087.68.115.78.303 1.431.548 1.923.26.506.621.752 1.112.738.52-.015.953-.26 1.314-.738a6.768 6.768 0 0 0 .91-1.663c.245-.637.448-1.273.606-1.924.16-.65.29-1.157.39-1.518.044-.16.03-.29-.057-.391a.47.47 0 0 0-.304-.174.536.536 0 0 0-.36.044c-.13.058-.203.173-.232.333-.043.144-.144.448-.288.94-.145.477-.304.969-.477 1.475a19.49 19.49 0 0 1-.52 1.36c-.173.404-.318.592-.419.607-.173 0-.303-.232-.375-.694a14.468 14.468 0 0 1-.13-1.823c-.015-.737 0-1.547.029-2.43a66.54 66.54 0 0 1 .115-2.53 58.056 58.056 0 0 1 .29-3.428c.042-.29-.044-.521-.246-.695a1.214 1.214 0 0 0-.737-.274 1.095 1.095 0 0 0-.75.245c-.232.174-.333.478-.318.912.014.39-.015.969-.058 1.735-.043.767-.101 1.606-.145 2.531a55.866 55.866 0 0 0-.057 2.228v.014c-.03.13-.101.333-.217.608-.115.274-.26.593-.433.925-.173.333-.361.68-.578 1.056-.216.362-.447.68-.693.955a3.407 3.407 0 0 1-.75.65c-.26.16-.506.203-.752.145-.173-.043-.317-.174-.433-.362a2.24 2.24 0 0 1-.231-.723 4.884 4.884 0 0 1-.087-.954c0-.362.015-.723.058-1.1.202-.028.419-.057.679-.1.26-.044.505-.116.765-.203.246-.087.477-.203.679-.333.217-.13.39-.29.52-.492.173-.231.245-.564.202-.969a3.671 3.671 0 0 0-.347-1.2 2.979 2.979 0 0 0-.794-1.013 1.62 1.62 0 0 0-1.155-.405c-.448.015-.852.246-1.199.71-.346.462-.635 1.026-.866 1.72a9.915 9.915 0 0 0-.289 1.172c-.058.217-.144.607-.26.94a16.3 16.3 0 0 1-.39 1.085c-.144.361-.289.68-.433.954-.159.275-.289.405-.39.42-.303.014-.606-.203-.895-.637a8.55 8.55 0 0 1-.809-1.547c.534-.81.997-1.519 1.415-2.14.405-.623.68-1.013.823-1.172.116-.13.116-.246-.028-.376a1.261 1.261 0 0 0-.564-.246 1.97 1.97 0 0 0-.765.029c-.274.058-.462.217-.606.448-.102.16-.231.376-.376.65-.159.276-.318.594-.505.955a6.567 6.567 0 0 1-.174-.94c-.043-.303-.057-.477-.086-.665-.03-.217-.116-.39-.332-.506a1.764 1.764 0 0 0-.737-.232c-.274-.029-.534 0-.794.073-.246.087-.404.231-.477.448v-.029c-.13.449-.245.868-.36 1.244-.102.318-.188.65-.29.97a8 8 0 0 0-.187.693c-.015.03-.015.058-.015.087-.043.174-.1.39-.173.65-.115.377-.23.753-.36 1.13-.13.375-.275.708-.42.997-.144.275-.274.42-.375.434-.159 0-.274-.16-.318-.477-.058-.319-.072-.71-.072-1.157 0-.449.029-.912.072-1.403.044-.478.101-.883.16-1.215a.787.787 0 0 0-.232-.723 1.2 1.2 0 0 0-.708-.333.973.973 0 0 0-.736.217c-.217.173-.274.434-.303.897a30.52 30.52 0 0 0-.044 1.677c0 .593.015 1.244.073 1.75.043.521.173.97.39 1.345zm12.606-5.944c.13-.405.26-.636.375-.694.073-.044.145.014.203.159.072.145.115.318.144.535.029.217.043.42.029.636a1.281 1.281 0 0 1-.116.478.64.64 0 0 1-.418.289c-.203.043-.39.087-.592.087.13-.593.245-1.085.375-1.49z"></path>
    </g>
    <path fill="#98CA3E" d="M28.043.058s1.098 3.746-1.733 7.072c-2.57 3.023-7.205 2.46-7.205 2.46s-.795-3.458 2.137-6.61C24.188-.175 28.043.057 28.043.057z"></path>
  </g>
</svg>
