<?xml version="1.0" encoding="UTF-8"?>
<svg xmlns="http://www.w3.org/2000/svg" xmlns:xlink="http://www.w3.org/1999/xlink" width="116px" height="20px" viewBox="0 0 116 20">
  <!-- Generator: sketchtool 56.2 (101010) - https://sketch.com -->
  <title>AD4C1697-3979-4CCD-8F1D-A7AEE20D5A81</title>
  <desc>Created with sketchtool.</desc>
  <g id="Page-1" stroke="none" stroke-width="1" fill="none" fill-rule="evenodd">
    <g id="web_results" transform="translate(-751.000000, -1660.000000)" fill="#FAC921" fill-rule="nonzero">
      <g id="table-comparison" transform="translate(360.000000, 1092.000000)">
        <g id="1" transform="translate(391.000000, 128.000000)">
          <g id="ic-cost-5" transform="translate(0.000000, 440.000000)">
            <g id="ic/dollar-active">
              <path d="M10,0 C4.47753906,0 0,4.47753906 0,10 C0,15.5224609 4.47753906,20 10,20 C15.5236719,20 20,15.5224609 20,10 C20,4.47753906 15.5236719,0 10,0 Z M12.7270312,13.8610938 C12.2350781,14.4128516 11.5246875,14.7375781 10.5957031,14.8352344 L10.5957031,16.25 L9.41160156,16.25 L9.41160156,14.8425391 C7.86253906,14.6838672 6.90425781,13.7829688 6.53441406,12.1423438 L8.36546875,11.6650391 C8.53515625,12.6965234 9.09667969,13.2116797 10.0500391,13.2116797 C10.4955859,13.2116797 10.8251953,13.1018359 11.0351562,12.8808594 C11.2451172,12.6598828 11.3500781,12.3937891 11.3500781,12.0812891 C11.3500781,11.7578125 11.2450781,11.5124219 11.0351562,11.3464063 C10.8251953,11.1792188 10.3576562,10.9679688 9.63378906,10.7116406 C8.98316406,10.4858594 8.47410156,10.2636328 8.10789062,10.0415234 C7.74167969,9.82179688 7.44382812,9.51296875 7.21554688,9.11621094 C6.98726563,8.71824219 6.87253906,8.254375 6.87253906,7.72703125 C6.87253906,7.03488281 7.07761719,6.41109375 7.48535156,5.85691406 C7.89308594,5.30394531 8.53515625,4.96578125 9.41164062,4.8425 L9.41164062,3.75 L10.5957422,3.75 L10.5957422,4.84253906 C11.9189844,5.00125 12.7759375,5.74953125 13.1653125,7.08863281 L11.5344531,7.75757813 C11.2158594,6.83960938 10.7250781,6.380625 10.0586328,6.380625 C9.72414062,6.380625 9.45558594,6.48316406 9.25417969,6.68824219 C9.05152344,6.89332031 8.95023437,7.14234375 8.95023437,7.43410156 C8.95023437,7.73195313 9.04789062,7.96023437 9.24320312,8.12015625 C9.43730469,8.27886719 9.85601562,8.47539062 10.4956641,8.71097656 C11.1987891,8.96734375 11.7505469,9.21023437 12.1497266,9.43851562 C12.5501172,9.66679687 12.8687109,9.98296875 13.1079687,10.3845703 C13.3460156,10.7874219 13.4655859,11.2574219 13.4655859,11.7957422 C13.4655859,12.6220703 13.2189844,13.3105469 12.7270312,13.8610938 Z" id="Shape"></path>
            </g>
            <g id="ic/dollar-active" transform="translate(24.000000, 0.000000)">
              <path d="M10,0 C4.47753906,0 0,4.47753906 0,10 C0,15.5224609 4.47753906,20 10,20 C15.5236719,20 20,15.5224609 20,10 C20,4.47753906 15.5236719,0 10,0 Z M12.7270312,13.8610938 C12.2350781,14.4128516 11.5246875,14.7375781 10.5957031,14.8352344 L10.5957031,16.25 L9.41160156,16.25 L9.41160156,14.8425391 C7.86253906,14.6838672 6.90425781,13.7829688 6.53441406,12.1423438 L8.36546875,11.6650391 C8.53515625,12.6965234 9.09667969,13.2116797 10.0500391,13.2116797 C10.4955859,13.2116797 10.8251953,13.1018359 11.0351562,12.8808594 C11.2451172,12.6598828 11.3500781,12.3937891 11.3500781,12.0812891 C11.3500781,11.7578125 11.2450781,11.5124219 11.0351562,11.3464063 C10.8251953,11.1792188 10.3576562,10.9679688 9.63378906,10.7116406 C8.98316406,10.4858594 8.47410156,10.2636328 8.10789062,10.0415234 C7.74167969,9.82179688 7.44382812,9.51296875 7.21554688,9.11621094 C6.98726563,8.71824219 6.87253906,8.254375 6.87253906,7.72703125 C6.87253906,7.03488281 7.07761719,6.41109375 7.48535156,5.85691406 C7.89308594,5.30394531 8.53515625,4.96578125 9.41164062,4.8425 L9.41164062,3.75 L10.5957422,3.75 L10.5957422,4.84253906 C11.9189844,5.00125 12.7759375,5.74953125 13.1653125,7.08863281 L11.5344531,7.75757813 C11.2158594,6.83960938 10.7250781,6.380625 10.0586328,6.380625 C9.72414062,6.380625 9.45558594,6.48316406 9.25417969,6.68824219 C9.05152344,6.89332031 8.95023437,7.14234375 8.95023437,7.43410156 C8.95023437,7.73195313 9.04789062,7.96023437 9.24320312,8.12015625 C9.43730469,8.27886719 9.85601562,8.47539062 10.4956641,8.71097656 C11.1987891,8.96734375 11.7505469,9.21023437 12.1497266,9.43851562 C12.5501172,9.66679687 12.8687109,9.98296875 13.1079687,10.3845703 C13.3460156,10.7874219 13.4655859,11.2574219 13.4655859,11.7957422 C13.4655859,12.6220703 13.2189844,13.3105469 12.7270312,13.8610938 Z" id="Shape"></path>
            </g>
            <g id="ic/dollar-active" transform="translate(48.000000, 0.000000)">
              <path d="M10,0 C4.47753906,0 0,4.47753906 0,10 C0,15.5224609 4.47753906,20 10,20 C15.5236719,20 20,15.5224609 20,10 C20,4.47753906 15.5236719,0 10,0 Z M12.7270312,13.8610938 C12.2350781,14.4128516 11.5246875,14.7375781 10.5957031,14.8352344 L10.5957031,16.25 L9.41160156,16.25 L9.41160156,14.8425391 C7.86253906,14.6838672 6.90425781,13.7829688 6.53441406,12.1423438 L8.36546875,11.6650391 C8.53515625,12.6965234 9.09667969,13.2116797 10.0500391,13.2116797 C10.4955859,13.2116797 10.8251953,13.1018359 11.0351562,12.8808594 C11.2451172,12.6598828 11.3500781,12.3937891 11.3500781,12.0812891 C11.3500781,11.7578125 11.2450781,11.5124219 11.0351562,11.3464063 C10.8251953,11.1792188 10.3576562,10.9679688 9.63378906,10.7116406 C8.98316406,10.4858594 8.47410156,10.2636328 8.10789062,10.0415234 C7.74167969,9.82179688 7.44382812,9.51296875 7.21554688,9.11621094 C6.98726563,8.71824219 6.87253906,8.254375 6.87253906,7.72703125 C6.87253906,7.03488281 7.07761719,6.41109375 7.48535156,5.85691406 C7.89308594,5.30394531 8.53515625,4.96578125 9.41164062,4.8425 L9.41164062,3.75 L10.5957422,3.75 L10.5957422,4.84253906 C11.9189844,5.00125 12.7759375,5.74953125 13.1653125,7.08863281 L11.5344531,7.75757813 C11.2158594,6.83960938 10.7250781,6.380625 10.0586328,6.380625 C9.72414062,6.380625 9.45558594,6.48316406 9.25417969,6.68824219 C9.05152344,6.89332031 8.95023437,7.14234375 8.95023437,7.43410156 C8.95023437,7.73195313 9.04789062,7.96023437 9.24320312,8.12015625 C9.43730469,8.27886719 9.85601562,8.47539062 10.4956641,8.71097656 C11.1987891,8.96734375 11.7505469,9.21023437 12.1497266,9.43851562 C12.5501172,9.66679687 12.8687109,9.98296875 13.1079687,10.3845703 C13.3460156,10.7874219 13.4655859,11.2574219 13.4655859,11.7957422 C13.4655859,12.6220703 13.2189844,13.3105469 12.7270312,13.8610938 Z" id="Shape"></path>
            </g>
            <g id="ic/dollar-active" transform="translate(72.000000, 0.000000)">
              <path d="M10,0 C4.47753906,0 0,4.47753906 0,10 C0,15.5224609 4.47753906,20 10,20 C15.5236719,20 20,15.5224609 20,10 C20,4.47753906 15.5236719,0 10,0 Z M12.7270312,13.8610938 C12.2350781,14.4128516 11.5246875,14.7375781 10.5957031,14.8352344 L10.5957031,16.25 L9.41160156,16.25 L9.41160156,14.8425391 C7.86253906,14.6838672 6.90425781,13.7829688 6.53441406,12.1423438 L8.36546875,11.6650391 C8.53515625,12.6965234 9.09667969,13.2116797 10.0500391,13.2116797 C10.4955859,13.2116797 10.8251953,13.1018359 11.0351562,12.8808594 C11.2451172,12.6598828 11.3500781,12.3937891 11.3500781,12.0812891 C11.3500781,11.7578125 11.2450781,11.5124219 11.0351562,11.3464063 C10.8251953,11.1792188 10.3576562,10.9679688 9.63378906,10.7116406 C8.98316406,10.4858594 8.47410156,10.2636328 8.10789062,10.0415234 C7.74167969,9.82179688 7.44382812,9.51296875 7.21554688,9.11621094 C6.98726563,8.71824219 6.87253906,8.254375 6.87253906,7.72703125 C6.87253906,7.03488281 7.07761719,6.41109375 7.48535156,5.85691406 C7.89308594,5.30394531 8.53515625,4.96578125 9.41164062,4.8425 L9.41164062,3.75 L10.5957422,3.75 L10.5957422,4.84253906 C11.9189844,5.00125 12.7759375,5.74953125 13.1653125,7.08863281 L11.5344531,7.75757813 C11.2158594,6.83960938 10.7250781,6.380625 10.0586328,6.380625 C9.72414062,6.380625 9.45558594,6.48316406 9.25417969,6.68824219 C9.05152344,6.89332031 8.95023437,7.14234375 8.95023437,7.43410156 C8.95023437,7.73195313 9.04789062,7.96023437 9.24320312,8.12015625 C9.43730469,8.27886719 9.85601562,8.47539062 10.4956641,8.71097656 C11.1987891,8.96734375 11.7505469,9.21023437 12.1497266,9.43851562 C12.5501172,9.66679687 12.8687109,9.98296875 13.1079687,10.3845703 C13.3460156,10.7874219 13.4655859,11.2574219 13.4655859,11.7957422 C13.4655859,12.6220703 13.2189844,13.3105469 12.7270312,13.8610938 Z" id="Shape"></path>
            </g>
            <g id="ic/dollar-active" transform="translate(96.000000, 0.000000)">
              <path d="M10,0 C4.47753906,0 0,4.47753906 0,10 C0,15.5224609 4.47753906,20 10,20 C15.5236719,20 20,15.5224609 20,10 C20,4.47753906 15.5236719,0 10,0 Z M12.7270312,13.8610938 C12.2350781,14.4128516 11.5246875,14.7375781 10.5957031,14.8352344 L10.5957031,16.25 L9.41160156,16.25 L9.41160156,14.8425391 C7.86253906,14.6838672 6.90425781,13.7829688 6.53441406,12.1423438 L8.36546875,11.6650391 C8.53515625,12.6965234 9.09667969,13.2116797 10.0500391,13.2116797 C10.4955859,13.2116797 10.8251953,13.1018359 11.0351562,12.8808594 C11.2451172,12.6598828 11.3500781,12.3937891 11.3500781,12.0812891 C11.3500781,11.7578125 11.2450781,11.5124219 11.0351562,11.3464063 C10.8251953,11.1792188 10.3576562,10.9679688 9.63378906,10.7116406 C8.98316406,10.4858594 8.47410156,10.2636328 8.10789062,10.0415234 C7.74167969,9.82179688 7.44382812,9.51296875 7.21554688,9.11621094 C6.98726563,8.71824219 6.87253906,8.254375 6.87253906,7.72703125 C6.87253906,7.03488281 7.07761719,6.41109375 7.48535156,5.85691406 C7.89308594,5.30394531 8.53515625,4.96578125 9.41164062,4.8425 L9.41164062,3.75 L10.5957422,3.75 L10.5957422,4.84253906 C11.9189844,5.00125 12.7759375,5.74953125 13.1653125,7.08863281 L11.5344531,7.75757813 C11.2158594,6.83960938 10.7250781,6.380625 10.0586328,6.380625 C9.72414062,6.380625 9.45558594,6.48316406 9.25417969,6.68824219 C9.05152344,6.89332031 8.95023437,7.14234375 8.95023437,7.43410156 C8.95023437,7.73195313 9.04789062,7.96023437 9.24320312,8.12015625 C9.43730469,8.27886719 9.85601562,8.47539062 10.4956641,8.71097656 C11.1987891,8.96734375 11.7505469,9.21023437 12.1497266,9.43851562 C12.5501172,9.66679687 12.8687109,9.98296875 13.1079687,10.3845703 C13.3460156,10.7874219 13.4655859,11.2574219 13.4655859,11.7957422 C13.4655859,12.6220703 13.2189844,13.3105469 12.7270312,13.8610938 Z" id="Shape"></path>
            </g>
          </g>
        </g>
      </g>
    </g>
  </g>
</svg>
