<?xml version="1.0" encoding="UTF-8"?>
<svg xmlns="http://www.w3.org/2000/svg" width="78" height="13" viewBox="0 0 78 13">
  <g>
    <g>
      <g>
        <g>
          <g>
            <path fill="#fac921" d="M6.997 10.51l4.12 2.487-1.094-4.687 3.64-3.153L8.87 4.75 6.997.33 5.123 4.75.33 5.157 3.97 8.31l-1.093 4.687z"></path>
          </g>
          <g></g>
        </g>
      </g>
      <g>
        <g>
          <g>
            <path fill="#fac921" d="M22.997 10.51l4.12 2.487-1.094-4.687 3.64-3.153-4.793-.407L22.997.33l-1.874 4.42-4.793.407 3.64 3.153-1.093 4.687z"></path>
          </g>
          <g></g>
        </g>
      </g>
      <g>
        <g>
          <g>
            <path fill="#fac921" d="M38.997 10.51l4.12 2.487-1.094-4.687 3.64-3.153-4.793-.407L38.997.33l-1.874 4.42-4.793.407 3.64 3.153-1.093 4.687z"></path>
          </g>
          <g></g>
        </g>
      </g>
      <g>
        <g>
          <g>
            <path fill="#fac921" d="M54.997 10.51l4.12 2.487-1.094-4.687 3.64-3.153-4.793-.407L54.997.33l-1.874 4.42-4.793.407 3.64 3.153-1.093 4.687z"></path>
          </g>
          <g></g>
        </g>
      </g>
      <g>
        <g>
          <g>
            <path fill="#fac921" d="M70.997 10.51l4.12 2.487-1.094-4.687 3.64-3.153-4.793-.407L70.997.33l-1.874 4.42-4.793.407 3.64 3.153-1.093 4.687z"></path>
          </g>
          <g></g>
        </g>
      </g>
    </g>
  </g>
</svg>
