<?xml version="1.0" encoding="UTF-8"?>
<svg xmlns="http://www.w3.org/2000/svg" xmlns:xlink="http://www.w3.org/1999/xlink" width="78px" height="13px" viewBox="0 0 78 13">
  <!-- Generator: sketchtool 56.2 (101010) - https://sketch.com -->
  <title>952F2554-2B73-47C4-8872-E9679CEB156A</title>
  <desc>Created with sketchtool.</desc>
  <g id="Page-1" stroke="none" stroke-width="1" fill="none" fill-rule="evenodd">
    <g id="web_results" transform="translate(-1375.000000, -1221.000000)">
      <g id="table-comparison" transform="translate(360.000000, 1092.000000)">
        <g id="1" transform="translate(994.000000, 128.000000)">
          <g id="rate-5" transform="translate(20.000000, 0.000000)">
            <g id="ic-star-24px">
              <polygon id="Path" fill="#FAC921" fill-rule="nonzero" points="8 11.5133333 12.12 14 11.0266667 9.31333333 14.6666667 6.16 9.87333333 5.75333333 8 1.33333333 6.12666667 5.75333333 1.33333333 6.16 4.97333333 9.31333333 3.88 14"></polygon>
              <polygon id="Path" points="0 0 16 0 16 16 0 16"></polygon>
            </g>
            <g id="ic-star-24px" transform="translate(16.000000, 0.000000)">
              <polygon id="Path" fill="#FAC921" fill-rule="nonzero" points="8 11.5133333 12.12 14 11.0266667 9.31333333 14.6666667 6.16 9.87333333 5.75333333 8 1.33333333 6.12666667 5.75333333 1.33333333 6.16 4.97333333 9.31333333 3.88 14"></polygon>
              <polygon id="Path" points="0 0 16 0 16 16 0 16"></polygon>
            </g>
            <g id="ic-star-24px" transform="translate(32.000000, 0.000000)">
              <polygon id="Path" fill="#FAC921" fill-rule="nonzero" points="8 11.5133333 12.12 14 11.0266667 9.31333333 14.6666667 6.16 9.87333333 5.75333333 8 1.33333333 6.12666667 5.75333333 1.33333333 6.16 4.97333333 9.31333333 3.88 14"></polygon>
              <polygon id="Path" points="0 0 16 0 16 16 0 16"></polygon>
            </g>
            <g id="ic-star-24px" transform="translate(48.000000, 0.000000)">
              <polygon id="Path" fill="#FAC921" fill-rule="nonzero" points="8 11.5133333 12.12 14 11.0266667 9.31333333 14.6666667 6.16 9.87333333 5.75333333 8 1.33333333 6.12666667 5.75333333 1.33333333 6.16 4.97333333 9.31333333 3.88 14"></polygon>
              <polygon id="Path" points="0 0 16 0 16 16 0 16"></polygon>
            </g>
            <g id="ic-star-24px" transform="translate(64.000000, 0.000000)">
              <polygon id="Path" fill="#FAC921" fill-rule="nonzero" points="8 11.5133333 12.12 14 11.0266667 9.31333333 14.6666667 6.16 9.87333333 5.75333333 8 1.33333333 6.12666667 5.75333333 1.33333333 6.16 4.97333333 9.31333333 3.88 14"></polygon>
              <polygon id="Path" points="0 0 16 0 16 16 0 16"></polygon>
            </g>
          </g>
        </g>
      </g>
    </g>
  </g>
</svg>
